<svg width="2605" height="1974" viewBox="0 0 2605 1974" fill="none" xmlns="http://www.w3.org/2000/svg">
<path d="M978.591 1678.27C1001.92 1678.27 1020.83 1659.36 1020.83 1636.04C1020.83 1612.71 1001.92 1593.8 978.591 1593.8C955.265 1593.8 936.355 1612.71 936.355 1636.04C936.355 1659.36 955.265 1678.27 978.591 1678.27Z" fill="#D2D2D2"/>
<g filter="url(#filter0_d_2719_32)">
<path d="M1099.36 1542.46C1145.59 1602.4 1141.3 1688.83 1086.41 1743.81L1086.44 1743.78C1031.54 1798.77 945.255 1803.06 885.411 1756.76L935.405 1706.68C967.333 1726.19 1009.56 1722.12 1037.17 1694.47C1064.78 1666.82 1068.84 1624.52 1049.37 1592.54L1099.36 1542.46ZM2213.86 1483.08C2259.91 1483.08 2298.13 1496.98 2326.8 1523.47L2292.48 1568.63C2269.03 1546.91 2237.75 1536.93 2209.5 1536.93C2181.26 1536.93 2166.93 1549.08 2166.93 1566.46C2166.93 1586 2191.26 1592.07 2224.7 1599.89C2272.49 1610.74 2333.31 1625.08 2333.31 1689.33C2333.31 1742.3 2295.51 1782.25 2217.32 1782.25C2161.72 1782.25 2121.75 1763.57 2094.38 1736.21L2128.26 1689.33L2128.27 1689.34C2148.69 1710.62 2180.4 1728.42 2220.37 1728.42C2254.25 1728.42 2270.76 1712.35 2270.76 1695.85C2270.76 1674.13 2245.57 1666.76 2212.11 1658.94C2164.76 1648.08 2103.94 1635.06 2103.94 1570.36C2103.94 1522.16 2145.64 1483.08 2213.86 1483.08ZM1963.49 1482.69C2029.52 1482.69 2066.44 1517.42 2086.85 1553.45L2033.85 1579.5C2021.7 1556.06 1995.64 1537.39 1963.49 1537.39C1913.11 1537.39 1874.88 1577.77 1874.88 1632.47C1874.88 1687.16 1913.11 1727.55 1963.49 1727.55C1995.64 1727.55 2021.7 1709.31 2033.85 1685.43L2086.85 1711.04C2066 1747.07 2029.52 1782.24 1963.49 1782.24C1878.79 1782.24 1811.46 1721.46 1811.46 1632.47C1811.46 1543.47 1878.79 1482.69 1963.49 1482.69ZM408.486 1487.44C471.512 1487.44 505.852 1530 505.852 1580.81C505.852 1631.62 471.075 1673.31 408.486 1673.31H334.593V1777.09H272.863V1487.44H408.486ZM596.092 1601.22H732.973V1487.44H795.105V1777.08H732.973V1655.51H596.092V1777.09H534.38V1487.44H596.092V1601.22ZM1370.05 1540.42H1226.82V1603.38H1367.01V1656.36H1226.82V1723.68H1370.05V1777.09H1165.2V1487.44H1370.05V1540.42ZM1606.38 1675.04V1487.44H1668.02V1777.08H1608.56V1777.09L1470.52 1582.56V1777.09H1408.88V1487.44H1472.25L1606.38 1675.04ZM1777.78 1777.08H1715.97V1487.44H1777.78V1777.08ZM870.319 1527.77C925.295 1472.79 1011.71 1468.5 1071.64 1514.79L1021.58 1564.86C989.601 1545.36 947.309 1549.42 919.659 1577.07L919.626 1577.11C891.976 1604.76 887.911 1647.05 907.413 1679.02L857.345 1729.09C811.051 1669.16 815.343 1582.74 870.319 1527.77ZM334.593 1620.33H400.226C424.571 1620.33 442.826 1604.7 442.826 1580.37C442.826 1556.05 424.571 1540.42 400.226 1540.42H334.593V1620.33Z" fill="url(#paint0_linear_2719_32)"/>
</g>
<path d="M2272.86 1847.93C2296.55 1847.93 2312.05 1859.23 2321.89 1873.26L2304.39 1883.1C2298.01 1873.99 2286.53 1866.88 2272.86 1866.88C2248.8 1866.88 2230.94 1885.29 2230.94 1910.8C2230.94 1936.32 2248.8 1954.91 2272.86 1954.91C2285.25 1954.91 2296.19 1949.08 2301.66 1943.97V1925.02H2265.39V1906.25H2322.98V1951.81C2310.95 1965.11 2294 1973.86 2272.86 1973.86C2237.69 1973.86 2209.07 1948.89 2209.07 1910.8C2209.07 1872.71 2237.69 1847.93 2272.86 1847.93ZM819.082 1868.7H782.268V1971.49H760.944V1868.7H724.129V1849.93H819.082V1868.7ZM920.441 1868.7H858.476V1900.23H919.165V1919.01H858.476V1952.72H920.441V1971.49H837.152V1849.93H920.441V1868.7ZM1051.69 1971.49H1028.36L1019.43 1948.17H961.839L952.909 1971.49H929.581L977.331 1849.93H1003.94L1051.69 1971.49ZM1128.03 1931.76L1161.2 1849.93H1191.27V1971.49H1169.94V1879.46L1132.58 1971.49H1123.47L1086.29 1879.46V1971.49H1064.97V1849.93H1095.04L1128.03 1931.76ZM1285.27 1899.69H1348.51V1849.93H1369.84V1971.49H1348.51V1918.46H1285.27V1971.49H1263.95V1849.93H1285.27V1899.69ZM1478.94 1868.7H1416.98V1900.23H1477.67V1919.01H1416.98V1952.72H1478.94V1971.49H1395.65V1849.93H1478.94V1868.7ZM1522.16 1971.49H1500.84V1849.93H1522.16V1971.49ZM1593.2 1849.93C1631.11 1849.93 1656.81 1875.08 1656.81 1910.8C1656.81 1946.52 1631.11 1971.49 1593.2 1971.49H1548V1849.93H1593.2ZM1760.69 1868.7H1698.72V1900.23H1759.41V1919.01H1698.72V1952.72H1760.69V1971.49H1677.4V1849.93H1760.69V1868.7ZM1803.91 1952.72H1857.49V1971.49H1782.58V1849.93H1803.91V1952.72ZM1936.51 1849.93C1958.75 1849.93 1971.14 1863.78 1971.14 1880.91C1971.14 1896.22 1961.3 1906.43 1950 1908.8C1962.94 1910.8 1973.51 1923.74 1973.51 1938.69C1973.51 1957.46 1960.93 1971.49 1938.15 1971.49H1876.73V1849.93H1936.51ZM2078.2 1868.7H2016.24V1900.23H2076.93V1919.01H2016.24V1952.72H2078.2V1971.49H1994.91V1849.93H2078.2V1868.7ZM2153.5 1849.93C2177.56 1849.93 2193.23 1865.61 2193.23 1888.02C2193.23 1909.71 2179.01 1921.37 2164.43 1923.74L2194.14 1971.49H2169.54L2142.56 1926.11H2121.42V1971.49H2100.1V1849.93H2153.5ZM1569.33 1952.72H1593.2C1619.63 1952.72 1634.94 1933.77 1634.94 1910.8C1634.94 1887.29 1620.36 1868.7 1593.2 1868.7H1569.33V1952.72ZM1898.06 1952.72H1933.05C1944.71 1952.72 1951.64 1946.34 1951.64 1935.77C1951.64 1926.66 1945.26 1919.01 1933.05 1919.01H1898.06V1952.72ZM967.854 1929.39H1013.42L990.635 1867.97L967.854 1929.39ZM2121.42 1907.34H2150.58C2162.61 1907.34 2171.36 1899.69 2171.36 1888.02C2171.36 1876.36 2162.61 1868.7 2150.58 1868.7H2121.42V1907.34ZM1898.06 1900.23H1932.14C1943.07 1900.23 1949.27 1893.67 1949.27 1884.56C1949.27 1875.45 1943.07 1868.7 1932.14 1868.7H1898.06V1900.23Z" fill="#352253"/>
<path d="M1115.88 988.846C1168.14 988.846 1210.5 946.484 1210.5 894.228C1210.5 841.972 1168.14 799.61 1115.88 799.61C1063.63 799.61 1021.26 841.972 1021.26 894.228C1021.26 946.484 1063.63 988.846 1115.88 988.846Z" fill="#D2D2D2"/>
<path d="M1448.96 382.281L1100.2 869.426L1146.77 902.772L1495.54 415.627L1448.96 382.281Z" fill="#D2D2D2"/>
<path d="M1027.31 923.313L0 923.313L0 866.175L1027.31 866.175V923.313Z" fill="url(#paint1_linear_2719_32)"/>
<path d="M1577.69 417.239L2605 417.239V360.101L1577.69 360.101V417.239Z" fill="url(#paint2_linear_2719_32)"/>
<path d="M1488.88 483.41C1541.14 483.41 1583.5 441.048 1583.5 388.792C1583.5 336.536 1541.14 294.175 1488.88 294.175C1436.63 294.175 1394.27 336.536 1394.27 388.792C1394.27 441.048 1436.63 483.41 1488.88 483.41Z" fill="#D2D2D2"/>
<path d="M1688.17 175.047C1836.79 284.971 1934.61 452.314 1941.58 637.833C1949.21 840.408 1848.17 1065.75 1671.87 1174.08C1648.78 1188.25 1621.64 1202.12 1595.62 1208.92C1620.19 1188.86 1641.91 1165.12 1660.09 1139.03C1696.01 1087.57 1725.71 1027.41 1745.22 968.037C1754.55 963.34 1764.05 962.725 1771.78 954.595C1798.67 926.265 1789.74 885.613 1752.34 873.472C1713.1 860.68 1677.54 902.163 1694.53 939.129C1696.84 944.152 1704.71 952.101 1705.76 954.992C1706.81 957.919 1688.42 1005.44 1685.42 1012.41C1613.47 1182.43 1509.58 1290.22 1321.57 1284.58C1305.67 1284.11 1289.41 1283.07 1273.77 1280.25C1292.92 1277.54 1312.36 1276.74 1331.29 1272.55C1426.47 1251.48 1521.51 1161.36 1559.16 1069.98C1571.38 1040.24 1570.04 1009.38 1575.57 978.228C1582.25 940.394 1592.05 897.357 1619.44 869.027C1619.39 868.951 1600.14 837.472 1500.24 808.752C1506.2 858.97 1459.37 893.664 1459.39 893.49C1471.75 839.143 1449.49 799.683 1449.49 799.683C1449.49 799.683 1427.92 778.29 1416.86 747.756C1402.61 708.35 1427.17 669.087 1427.23 668.982C1419.86 619.404 1445.66 598.879 1449.49 587.279C1449.48 587.355 1439.55 639.277 1486.24 687.844C1558.11 762.608 1712.12 675.92 1765.53 545.29C1815.54 422.972 1800.37 314.674 1720.22 213.062L1688.17 175.047ZM1565.63 901.078C1567.76 902.275 1554.82 942.417 1553.49 948.018C1548.64 968.254 1545.14 989.104 1543.26 1009.77C1541.53 1029.36 1544.92 1045.15 1536.11 1063.61C1523.89 1089.27 1502.25 1117.35 1482.91 1138.16C1386.65 1241.79 1228.8 1294.33 1097.04 1235.03L1137.86 1238.58C1233.44 1239.52 1316.98 1188.39 1389.22 1128.01C1397.82 1120.82 1425.57 1092.27 1432 1089.49C1435.18 1088.11 1442.48 1091.15 1447.72 1090.82C1474.6 1089.16 1488.41 1053.57 1471.21 1032.72C1447.1 1003.56 1409.38 1022.75 1408.11 1057.91C1407.97 1061.88 1409.92 1066.11 1409.74 1068.17C1409.23 1073.81 1388.57 1091.19 1382.96 1095.92C1345.24 1128.23 1277.34 1170.97 1229.93 1185.43C1228.59 1185.82 1226.61 1189.04 1226.1 1184.63C1258.08 1165.44 1277.63 1133.54 1294.76 1101.3C1337.72 1020.51 1345.78 967.639 1440.06 934.72C1480.86 920.483 1523.82 911.594 1565.63 901.078ZM1096.74 1234.9C1096.84 1234.94 1096.94 1234.99 1097.04 1235.03L1096.7 1235.01L1096.66 1234.9H1096.74Z" fill="url(#paint3_linear_2719_32)"/>
<path d="M910.096 273.37C981.969 103.317 1085.82 -4.47515 1273.87 1.1619C1289.77 1.63166 1306.03 2.67928 1321.68 5.49783C1302.53 8.20798 1283.08 9.0034 1264.15 13.1951C1168.97 34.2622 1073.93 124.383 1036.28 215.769C1024.07 245.509 1025.4 276.405 1019.88 307.553C1013.19 345.387 1003.4 388.425 976.007 416.755C976.071 416.859 995.355 448.338 1095.28 477.051C1089.27 426.8 1136.15 392.079 1136.12 392.255C1123.76 446.602 1146.02 486.062 1146.02 486.062C1146.08 486.117 1167.61 507.494 1178.65 537.989C1192.9 577.379 1168.37 616.624 1168.28 616.763C1175.65 666.341 1149.85 686.866 1146.02 698.466C1146.04 698.364 1155.95 646.456 1109.27 597.901C1037.4 523.137 883.392 609.826 829.984 740.455C779.972 862.773 795.149 971.071 875.297 1072.68L907.35 1110.73C758.725 1000.81 660.907 833.468 653.933 647.949C646.308 445.374 747.342 220.034 923.647 111.664C946.737 97.4988 973.874 83.6224 999.892 76.8289C975.32 96.8839 953.603 120.625 935.427 146.715C899.508 198.171 869.805 258.337 850.292 317.708C840.969 322.405 831.466 323.02 823.733 331.15C796.848 359.48 805.773 400.133 843.173 412.31C882.416 425.102 917.973 383.619 900.989 346.652C898.677 341.629 890.799 333.68 889.751 330.789C888.703 327.862 907.096 280.345 910.096 273.37ZM1095.25 477.064L1095.29 477.137C1095.29 477.112 1095.28 477.088 1095.28 477.064H1095.25ZM1112.6 147.546C1208.88 43.8919 1366.79 -8.64785 1498.57 50.7176L1457.66 47.1619C1362.08 46.2224 1278.53 97.3539 1206.3 157.736C1197.7 164.927 1169.95 193.472 1163.51 196.256C1160.33 197.629 1153.03 194.594 1147.79 194.919C1120.91 196.581 1107.11 232.175 1124.31 253.025C1148.41 282.186 1186.13 262.998 1187.4 227.839C1187.54 223.864 1185.59 219.636 1185.77 217.576C1186.28 211.939 1206.95 194.558 1212.55 189.824C1250.27 157.519 1318.17 114.77 1365.58 100.316C1366.92 99.9187 1368.91 96.7036 1369.41 101.112C1337.43 120.3 1317.88 152.207 1300.76 184.44C1257.79 265.239 1249.73 318.105 1155.46 350.988C1114.66 365.225 1071.69 374.114 1029.88 384.63C1027.75 383.437 1040.69 343.292 1042.03 337.69C1046.87 317.454 1050.37 296.64 1052.25 275.934C1053.99 256.349 1050.59 240.558 1059.41 222.093C1071.62 196.437 1093.27 168.36 1112.6 147.546ZM1498.81 50.739L1498.85 50.8113H1498.78C1498.71 50.7799 1498.64 50.7489 1498.57 50.7176L1498.81 50.739Z" fill="url(#paint4_linear_2719_32)"/>
<defs>
<filter id="filter0_d_2719_32" x="269.341" y="1482.69" width="2067.49" height="312.885" filterUnits="userSpaceOnUse" color-interpolation-filters="sRGB">
<feFlood flood-opacity="0" result="BackgroundImageFix"/>
<feColorMatrix in="SourceAlpha" type="matrix" values="0 0 0 0 0 0 0 0 0 0 0 0 0 0 0 0 0 0 127 0" result="hardAlpha"/>
<feOffset dy="3.5222"/>
<feGaussianBlur stdDeviation="1.7611"/>
<feComposite in2="hardAlpha" operator="out"/>
<feColorMatrix type="matrix" values="0 0 0 0 0 0 0 0 0 0 0 0 0 0 0 0 0 0 0.25 0"/>
<feBlend mode="normal" in2="BackgroundImageFix" result="effect1_dropShadow_2719_32"/>
<feBlend mode="normal" in="SourceGraphic" in2="effect1_dropShadow_2719_32" result="shape"/>
</filter>
<linearGradient id="paint0_linear_2719_32" x1="256.023" y1="1329.18" x2="2242.77" y2="2019.82" gradientUnits="userSpaceOnUse">
<stop stop-color="#352253"/>
<stop offset="0.118504" stop-color="#85279E"/>
<stop offset="0.29396" stop-color="#D42BE9"/>
<stop offset="0.473686" stop-color="#F64BCC"/>
<stop offset="0.694619" stop-color="#E54A42"/>
<stop offset="0.784562" stop-color="#FB8825"/>
<stop offset="0.900233" stop-color="#FDAC13"/>
<stop offset="1" stop-color="#FFCE00"/>
</linearGradient>
<linearGradient id="paint1_linear_2719_32" x1="613.491" y1="894.366" x2="5.46975e-05" y2="894.86" gradientUnits="userSpaceOnUse">
<stop stop-color="#D2D2D2"/>
<stop offset="1" stop-color="white" stop-opacity="0"/>
</linearGradient>
<linearGradient id="paint2_linear_2719_32" x1="1991.51" y1="388.292" x2="2605" y2="388.786" gradientUnits="userSpaceOnUse">
<stop stop-color="#D2D2D2"/>
<stop offset="1" stop-color="white" stop-opacity="0"/>
</linearGradient>
<linearGradient id="paint3_linear_2719_32" x1="1846.24" y1="213.605" x2="1031.29" y2="1465.75" gradientUnits="userSpaceOnUse">
<stop stop-color="#FF6BC9"/>
<stop offset="0.168269" stop-color="#E53BDB"/>
<stop offset="0.355769" stop-color="#D42BE9"/>
<stop offset="0.600752" stop-color="#85279E"/>
<stop offset="0.955849" stop-color="#462B71"/>
</linearGradient>
<linearGradient id="paint4_linear_2719_32" x1="518.365" y1="836.593" x2="1370.74" y2="0.950416" gradientUnits="userSpaceOnUse">
<stop offset="0.1875" stop-color="#E54A42"/>
<stop offset="0.480769" stop-color="#FB8825"/>
<stop offset="0.759615" stop-color="#FDAC13"/>
<stop offset="0.932692" stop-color="#FFD000"/>
</linearGradient>
</defs>
</svg>
